<?xml version="1.0" encoding="UTF-8" standalone="no"?><!DOCTYPE svg PUBLIC "-//W3C//DTD SVG 1.1//EN" "http://www.w3.org/Graphics/SVG/1.1/DTD/svg11.dtd"><svg width="100%" height="100%" viewBox="0 0 500 500" version="1.1" xmlns="http://www.w3.org/2000/svg" xmlns:xlink="http://www.w3.org/1999/xlink" xml:space="preserve" xmlns:serif="http://www.serif.com/" style="fill-rule:evenodd;clip-rule:evenodd;stroke-linejoin:round;stroke-miterlimit:2;"><path d="M69.067,460.1c-5.508,0 -46.635,-8.732 -43.808,-16.271c-0,-0.751 0.501,-3.505 1.001,-8.011c0.751,-4.506 1.002,-8.26 1.252,-11.014c-0,-1.752 -0.25,-3.755 -1.001,-6.509c-1.002,-2.503 -1.252,-4.506 -1.002,-5.757c0.501,-2.253 1.252,-4.256 2.504,-6.258c1.251,-2.003 3.003,-4.256 5.006,-7.01c2.253,-2.753 3.755,-5.006 5.007,-7.009c4.506,-7.76 9.012,-16.772 13.517,-27.536c4.506,-10.764 7.51,-20.026 9.012,-27.536c0.751,-2.003 0.751,-5.007 0.251,-9.012c-0.501,-4.005 -0.751,-7.009 -0.251,-8.511c0.501,-2.253 2.253,-5.007 5.007,-8.512c2.754,-3.504 4.506,-5.757 5.006,-7.009c4.006,-7.009 8.261,-16.271 12.517,-27.536c4.256,-11.265 6.759,-20.277 7.51,-27.036c0.25,-1.752 -0,-5.006 -0.751,-9.512c-0.501,-4.756 -0.501,-7.51 0.25,-8.511c0.751,-2.754 3.004,-5.758 6.509,-9.262c3.504,-3.505 5.757,-5.758 6.508,-6.759c3.755,-5.007 8.011,-13.518 12.767,-25.284c4.756,-11.765 7.51,-21.528 8.261,-29.038c-0,-1.752 -0.25,-4.255 -1.001,-7.76c-0.751,-3.505 -1.002,-6.258 -0.501,-8.011c0.501,-1.752 1.252,-3.504 2.754,-5.507c1.502,-2.002 3.504,-4.506 5.507,-7.009c2.002,-2.503 3.755,-4.756 5.006,-6.258c1.753,-2.504 3.255,-5.507 5.007,-9.262c1.752,-3.755 3.254,-7.26 4.506,-10.514c1.252,-3.255 2.754,-6.759 4.756,-10.764c2.003,-4.006 3.755,-7.01 5.758,-9.513c2.002,-2.503 4.756,-4.756 8.01,-7.009c3.255,-2.253 6.759,-3.254 10.764,-3.505c4.006,-0.25 8.762,0.251 14.269,1.502l-0.25,1.002c7.51,-1.753 12.767,-2.754 15.27,-2.754l228.551,-0c14.769,-0 26.284,5.758 34.295,17.022c8.01,11.265 10.013,24.282 5.507,39.052l-82.358,271.857c-7.26,23.782 -14.519,39.302 -21.529,46.061c-7.009,6.759 -20.026,10.263 -38.55,10.263l-260.843,0Z" style="fill:#293b48;fill-rule:nonzero;"/><path d="M474.359,111.318c0.5,7.009 -0,12.766 -1.502,17.022l-89.869,296.39c-1.502,5.257 -5.006,9.262 -10.513,12.516c-5.508,3.004 -11.015,4.757 -16.772,4.757l-277.115,-0c-24.032,-0 -38.3,-7.01 -43.307,-21.028c-2.003,-5.507 -2.003,-9.763 0.25,-13.017c2.253,-3.004 6.008,-4.506 11.516,-4.506l260.843,-0c18.524,-0 31.541,-3.505 38.55,-10.264c7.01,-6.759 14.269,-22.279 21.529,-46.06l82.358,-271.858c4.506,-14.769 2.503,-27.786 -5.507,-39.051c-8.011,-11.265 -19.526,-17.023 -34.295,-17.023l-228.551,0c-2.503,0 -7.76,1.002 -15.27,2.754l0.25,-1.001c-5.507,-1.252 -10.263,-1.753 -14.269,-1.502c-4.005,0.25 -7.509,1.251 -10.764,3.504c-3.254,2.253 -6.008,4.506 -8.01,7.01c-2.003,2.503 -3.755,5.507 -5.758,9.512c-2.002,4.005 -3.504,7.51 -4.756,10.764c-1.252,3.255 -2.754,6.759 -4.506,10.514c-1.752,3.755 -3.254,6.759 -5.007,9.262c-1.251,1.502 -3.004,3.755 -5.006,6.258c-2.003,2.504 -4.005,5.007 -5.507,7.01c-1.502,2.002 -2.253,3.755 -2.754,5.507c-0.501,1.752 -0.25,4.506 0.501,8.01c0.751,3.505 1.001,6.008 1.001,7.761c-0.751,7.51 -3.505,17.272 -8.261,29.038c-4.756,11.765 -9.012,20.277 -12.767,25.283c-0.751,1.001 -3.004,3.254 -6.508,6.759c-3.505,3.505 -5.758,6.509 -6.509,9.262c-0.751,1.002 -0.751,3.755 -0.25,8.511c0.751,4.506 1.001,7.761 0.751,9.513c-0.751,6.759 -3.254,15.771 -7.51,27.035c-4.256,11.265 -8.511,20.527 -12.516,27.537c-0.501,1.251 -2.253,3.504 -5.007,7.009c-2.754,3.505 -4.506,6.258 -5.007,8.511c-0.5,1.502 -0.25,4.506 0.251,8.511c0.5,4.006 0.5,7.01 -0.251,9.012c-1.502,7.51 -4.506,16.772 -9.012,27.536c-4.505,10.765 -9.011,19.776 -13.517,27.537c-1.252,2.002 -2.754,4.255 -5.007,7.009c-2.003,2.753 -3.755,5.006 -5.006,7.009c-1.252,2.003 -2.003,4.005 -2.504,6.258c-0.25,1.252 0,3.255 1.002,5.758c0.751,2.753 1.001,4.756 1.001,6.508c-0.25,2.754 -0.501,6.509 -1.252,11.015c-0.5,4.506 -1.001,7.259 -1.001,8.01c-4.506,12.016 -4.256,24.783 0.501,38.05c5.507,15.521 15.52,28.788 29.789,39.552c14.269,10.765 29.288,16.022 44.558,16.022l277.115,-0c13.017,-0 25.283,-4.256 36.798,-13.018c11.515,-8.761 19.276,-19.525 23.031,-32.292l82.608,-271.858c4.506,-14.519 2.503,-27.285 -5.507,-38.801c-4.256,-6.258 -10.013,-10.513 -17.773,-13.517Zm-325.178,215.283l35.547,-107.141l27.035,-0c9.513,-0 72.095,-4.256 63.584,43.807c-8.511,48.064 -47.062,63.083 -92.121,63.584c-45.06,0.501 -34.045,-0.25 -34.045,-0.25Zm47.562,-15.02c11.766,-0.25 47.313,-7.26 55.323,-42.806c8.011,-35.547 -28.788,-33.544 -28.788,-33.544l-22.279,-0l-25.534,76.35c0.251,0.25 9.763,0.25 21.278,-0Zm-8.26,-120.408l34.295,-106.39l24.532,-0l2.003,85.112l59.077,-85.112l24.783,-0l-34.045,106.39l-17.773,-0l31.291,-88.617l-61.331,88.617l-17.022,-0l-2.003,-87.616l-27.035,87.616l-16.772,-0Z" style="fill-rule:nonzero;"/><clipPath id="_clip1"><path d="M474.359,111.318c0.5,7.009 -0,12.766 -1.502,17.022l-89.869,296.39c-1.502,5.257 -5.006,9.262 -10.513,12.516c-5.508,3.004 -11.015,4.757 -16.772,4.757l-277.115,-0c-24.032,-0 -38.3,-7.01 -43.307,-21.028c-2.003,-5.507 -2.003,-9.763 0.25,-13.017c2.253,-3.004 6.008,-4.506 11.516,-4.506l260.843,-0c18.524,-0 31.541,-3.505 38.55,-10.264c7.01,-6.759 14.269,-22.279 21.529,-46.06l82.358,-271.858c4.506,-14.769 2.503,-27.786 -5.507,-39.051c-8.011,-11.265 -19.526,-17.023 -34.295,-17.023l-228.551,0c-2.503,0 -7.76,1.002 -15.27,2.754l0.25,-1.001c-5.507,-1.252 -10.263,-1.753 -14.269,-1.502c-4.005,0.25 -7.509,1.251 -10.764,3.504c-3.254,2.253 -6.008,4.506 -8.01,7.01c-2.003,2.503 -3.755,5.507 -5.758,9.512c-2.002,4.005 -3.504,7.51 -4.756,10.764c-1.252,3.255 -2.754,6.759 -4.506,10.514c-1.752,3.755 -3.254,6.759 -5.007,9.262c-1.251,1.502 -3.004,3.755 -5.006,6.258c-2.003,2.504 -4.005,5.007 -5.507,7.01c-1.502,2.002 -2.253,3.755 -2.754,5.507c-0.501,1.752 -0.25,4.506 0.501,8.01c0.751,3.505 1.001,6.008 1.001,7.761c-0.751,7.51 -3.505,17.272 -8.261,29.038c-4.756,11.765 -9.012,20.277 -12.767,25.283c-0.751,1.001 -3.004,3.254 -6.508,6.759c-3.505,3.505 -5.758,6.509 -6.509,9.262c-0.751,1.002 -0.751,3.755 -0.25,8.511c0.751,4.506 1.001,7.761 0.751,9.513c-0.751,6.759 -3.254,15.771 -7.51,27.035c-4.256,11.265 -8.511,20.527 -12.516,27.537c-0.501,1.251 -2.253,3.504 -5.007,7.009c-2.754,3.505 -4.506,6.258 -5.007,8.511c-0.5,1.502 -0.25,4.506 0.251,8.511c0.5,4.006 0.5,7.01 -0.251,9.012c-1.502,7.51 -4.506,16.772 -9.012,27.536c-4.505,10.765 -9.011,19.776 -13.517,27.537c-1.252,2.002 -2.754,4.255 -5.007,7.009c-2.003,2.753 -3.755,5.006 -5.006,7.009c-1.252,2.003 -2.003,4.005 -2.504,6.258c-0.25,1.252 0,3.255 1.002,5.758c0.751,2.753 1.001,4.756 1.001,6.508c-0.25,2.754 -0.501,6.509 -1.252,11.015c-0.5,4.506 -1.001,7.259 -1.001,8.01c-4.506,12.016 -4.256,24.783 0.501,38.05c5.507,15.521 15.52,28.788 29.789,39.552c14.269,10.765 29.288,16.022 44.558,16.022l277.115,-0c13.017,-0 25.283,-4.256 36.798,-13.018c11.515,-8.761 19.276,-19.525 23.031,-32.292l82.608,-271.858c4.506,-14.519 2.503,-27.285 -5.507,-38.801c-4.256,-6.258 -10.013,-10.513 -17.773,-13.517Zm-325.178,215.283l35.547,-107.141l27.035,-0c9.513,-0 72.095,-4.256 63.584,43.807c-8.511,48.064 -47.062,63.083 -92.121,63.584c-45.06,0.501 -34.045,-0.25 -34.045,-0.25Zm47.562,-15.02c11.766,-0.25 47.313,-7.26 55.323,-42.806c8.011,-35.547 -28.788,-33.544 -28.788,-33.544l-22.279,-0l-25.534,76.35c0.251,0.25 9.763,0.25 21.278,-0Zm-8.26,-120.408l34.295,-106.39l24.532,-0l2.003,85.112l59.077,-85.112l24.783,-0l-34.045,106.39l-17.773,-0l31.291,-88.617l-61.331,88.617l-17.022,-0l-2.003,-87.616l-27.035,87.616l-16.772,-0Z" clip-rule="nonzero"/></clipPath><g clip-path="url(#_clip1)"><g><path d="M1088.77,291.112l-450.008,-514.215l-515.629,451.246l450.007,514.215l515.63,-451.246Z" style="fill:#4ac6a8;"/><path d="M575.139,742.358l-450.007,-514.215l-515.63,451.246l450.008,514.214l515.629,-451.245Z" style="fill:#f68421;"/><path d="M126.132,229.143l-450.008,-514.215l-515.629,451.246l450.007,514.215l515.63,-451.246Z" style="fill:#a22772;"/><path d="M640.761,-221.103l-450.008,-514.215l-515.629,451.246l450.008,514.215l515.629,-451.246Z" style="fill:#a22772;"/></g></g></svg>